<svg width="12" height="13" viewBox="0 0 12 13" fill="none" xmlns="http://www.w3.org/2000/svg">
<path d="M7.97998 6.62994L10.5601 3.81995C10.8601 3.49995 11.02 3.06992 11.02 2.60992C11.02 2.14992 10.8601 1.7299 10.5601 1.3999C10.2601 1.0799 9.87007 0.899902 9.45007 0.899902C9.03007 0.899902 8.64009 1.0799 8.34009 1.3999L5.76001 4.2099L3.18005 1.3999C2.88005 1.0799 2.49007 0.899902 2.07007 0.899902C1.65007 0.899902 1.26008 1.0799 0.960083 1.3999C0.660083 1.7199 0.5 2.14992 0.5 2.60992C0.5 3.06992 0.660083 3.48995 0.960083 3.81995L3.54004 6.62994L0.960083 9.43994C0.660083 9.75994 0.5 10.1899 0.5 10.6499C0.5 11.1099 0.660083 11.5299 0.960083 11.8599C1.26008 12.1799 1.65007 12.3599 2.07007 12.3599C2.49007 12.3599 2.88005 12.1799 3.18005 11.8599L5.76001 9.04993L8.34009 11.8599C8.64009 12.1799 9.03007 12.3599 9.45007 12.3599C9.87007 12.3599 10.2601 12.1799 10.5601 11.8599C10.8601 11.5399 11.02 11.1099 11.02 10.6499C11.02 10.1899 10.8601 9.76994 10.5601 9.43994L7.97998 6.62994Z" fill="#102C54" stroke="#102C54" stroke-miterlimit="10"/>
</svg>
